{"title":"Hawaii.Five-0.S04E11.1080p.WEB-DL.DD5.1.H.264-KiNGS","uid":9386709,"size":1781063434,"categoryP":"video","categoryS":"hd___tv_shows","magnet":"?xt=urn:btih:b0fcfcffe0e95146246158fe3c7d69555bde455e&amp;dn=Hawaii.Five-0.S04E11.1080p.WEB-DL.DD5.1.H.264-KiNGS&amp;tr=udp%3A%2F%2Ftracker.openbittorrent.com%3A80&amp;tr=udp%3A%2F%2Fopen.demonii.com%3A1337&amp;tr=udp%3A%2F%2Ftracker.coppersurfer.tk%3A6969&amp;tr=udp%3A%2F%2Fexodus.desync.com%3A6969","seeders":2,"leechers":2,"uploader":"azcom_","files":1,"time":1387816573,"description":"General\nUnique ID                      : 190431137658190870239199866827742585926 (0x8F43B3FA2A38429880968CFA0E172446)\nComplete name                  : Hawaii.Five-0.S04E11.1080p.WEB-DL.DD5.1.H.264-KiNGS.mkv\nFormat                         : Matroska\nFormat version                 : Version 4 / Version 2\nFile size                      : 1.66 GiB\nDuration                       : 44mn 13s\nOverall bit rate               : 5 370 Kbps\nEncoded date                   : UTC 2013-12-22 20:31:47\nWriting application            : mkvmerge v6.6.0 ('The Edge Of The In Between') built on Dec  1 2013 17:55:00\nWriting library                : libebml v1.3.0 + libmatroska v1.4.1\n\nVideo\nID                             : 2\nFormat                         : AVC\nFormat/Info                    : Advanced Video Codec\nFormat profile                 : &lt;a class=&quot;__cf_email__&quot; href=&quot;/cdn-cgi/l/email-protection&quot; data-cfemail=&quot;1b53727c735b572f352b&quot;&gt;[email&amp;#160;protected]&lt;/a&gt;&lt;script cf-hash='f9e31' type=&quot;text/javascript&quot;&gt;\n/* &lt;![CDATA[ */!function(){try{var t=&quot;currentScript&quot;in document?document.currentScript:function(){for(var t=document.getElementsByTagName(&quot;script&quot;),e=t.length;e--;)if(t[e].getAttribute(&quot;cf-hash&quot;))return t[e]}();if(t&amp;&amp;t.previousSibling){var e,r,n,i,c=t.previousSibling,a=c.getAttribute(&quot;data-cfemail&quot;);if(a){for(e=&quot;&quot;,r=parseInt(a.substr(0,2),16),n=2;a.length-n;n+=2)i=parseInt(a.substr(n,2),16)^r,e+=String.fromCharCode(i);e=document.createTextNode(e),c.parentNode.replaceChild(e,c)}}}catch(u){}}();/* ]]&gt; */&lt;/script&gt;\nFormat settings, CABAC         : Yes\nFormat settings, ReFrames      : 4 frames\nCodec ID                       : V_MPEG4/ISO/AVC\nDuration                       : 44mn 13s\nBit rate                       : 4 879 Kbps\nWidth                          : 1 920 pixels\nHeight                         : 1 080 pixels\nDisplay aspect ratio           : 16:9\nFrame rate mode                : Constant\nFrame rate                     : 23.976 fps\nColor space                    : YUV\nChroma subsampling             : 4:2:0\nBit depth                      : 8 bits\nScan type                      : Progressive\nBits/(Pixel*Frame)             : 0.098\nStream size                    : 1.51 GiB (91%)\nLanguage                       : English\nDefault                        : Yes\nForced                         : No\nColor primaries                : BT.709\nTransfer characteristics       : BT.709\nMatrix coefficients            : BT.709\n\nAudio\nID                             : 3\nFormat                         : AC-3\nFormat/Info                    : Audio Coding 3\nMode extension                 : CM (complete main)\nFormat settings, Endianness    : Big\nCodec ID                       : A_AC3\nDuration                       : 44mn 13s\nBit rate mode                  : Constant\nBit rate                       : 384 Kbps\nChannel count                  : 6 channels\nChannel positions              : Front: L C R, Side: L R, LFE\nSampling rate                  : 48.0 KHz\nBit depth                      : 16 bits\nCompression mode               : Lossy\nStream size                    : 121 MiB (7%)\nLanguage                       : English\nDefault                        : Yes\nForced                         : No\n\nText\nID                             : 1\nFormat                         : UTF-8\nCodec ID                       : S_TEXT/UTF8\nCodec ID/Info                  : UTF-8 Plain Text\nDefault                        : Yes\nForced                         : No\n\n","torrent":{"xt":"urn:btih:b0fcfcffe0e95146246158fe3c7d69555bde455e","amp;dn":"Hawaii.Five-0.S04E11.1080p.WEB-DL.DD5.1.H.264-KiNGS","amp;tr":["udp%3A%2F%2Ftracker.openbittorrent.com%3A80","udp%3A%2F%2Fopen.demonii.com%3A1337","udp%3A%2F%2Ftracker.coppersurfer.tk%3A6969","udp%3A%2F%2Fexodus.desync.com%3A6969"],"infoHash":"b0fcfcffe0e95146246158fe3c7d69555bde455e","infoHashBuffer":{"type":"Buffer","data":[176,252,252,255,224,233,81,70,36,97,88,254,60,125,105,85,91,222,69,94]},"announce":[],"urlList":[]}}